<?xml version="1.0" encoding="utf-8"?>
<!-- Generator: Adobe Illustrator 22.0.0, SVG Export Plug-In . SVG Version: 6.00 Build 0)  -->
<svg version="1.1" id="Layer_1" xmlns="http://www.w3.org/2000/svg" xmlns:xlink="http://www.w3.org/1999/xlink" x="0px" y="0px"
	 viewBox="0 0 53 53" style="enable-background:new 0 0 53 53;" xml:space="preserve">
<style type="text/css">
	.st0{fill:#47B957;}
	.st1{fill:#47B957;stroke:#FFFFFF;stroke-width:3;stroke-linejoin:round;}
	.st2{fill:#FFFFFF;}
</style>
<title>icon-whatsapp copy</title>
<desc>Created with Sketch.</desc>
<g id="icon-whatsapp-copy">
	<circle id="Oval" class="st0" cx="26.5" cy="26.7" r="26"/>
	<g id="icon-whatsapp" transform="translate(16.000000, 15.000000)">
		<path id="Fill-4" class="st1" d="M11,24.8c-2.9,0-5.7-0.9-8-2.3l-5.6,1.7l1.8-5.2c-1.7-2.3-2.8-5.2-2.8-8.2c0-0.5,0-0.9,0.1-1.4
			C-2.7,2.3,3.5-3.3,11-3.3c7.6,0,13.9,5.7,14.5,13c0,0.4,0,0.7,0,1.1C25.5,18.5,19,24.8,11,24.8"/>
		<path id="Fill-6" class="st2" d="M18.5,13.7c-0.4-0.2-2.3-1.1-2.7-1.2c-0.4-0.1-0.6-0.2-0.9,0.2c-0.3,0.4-1,1.2-1.2,1.5
			c-0.2,0.3-0.5,0.3-0.8,0.1c-0.4-0.2-1.6-0.6-3.1-1.8c-1.2-1-1.9-2.2-2.2-2.6C7.4,9.4,7.6,9.2,7.8,9C8,8.9,8.2,8.6,8.4,8.4
			c0.1-0.1,0.1-0.1,0.1-0.2C8.6,8.1,8.7,8,8.8,7.8c0.1-0.2,0.1-0.5,0-0.7c-0.1-0.2-0.9-2-1.2-2.8C7.2,3.6,6.9,3.8,6.7,3.8
			c-0.2,0-0.5,0-0.7,0s-0.7,0.1-1,0.5C4.5,4.6,3.5,5.5,3.5,7.3c0,0.4,0.1,0.9,0.2,1.3c0.4,1.3,1.2,2.4,1.4,2.6
			c0.2,0.2,2.7,4.1,6.6,5.6c4,1.5,4,1,4.7,0.9c0.7-0.1,2.3-0.9,2.6-1.8c0.3-0.9,0.3-1.6,0.2-1.8C19.2,14,18.9,13.9,18.5,13.7"/>
	</g>
</g>
</svg>
