<?xml version="1.0" encoding="utf-8"?>
<!-- Generator: Adobe Illustrator 22.0.0, SVG Export Plug-In . SVG Version: 6.00 Build 0)  -->
<svg version="1.1" id="Layer_1" xmlns="http://www.w3.org/2000/svg" xmlns:xlink="http://www.w3.org/1999/xlink" x="0px" y="0px"
	 viewBox="0 0 53 53" style="enable-background:new 0 0 53 53;" xml:space="preserve">
<style type="text/css">
	.st0{fill:#E05C1D;}
	.st1{fill:#FFFFFF;}
</style>
<title>icon-whatsapp copy</title>
<desc>Created with Sketch.</desc>
<circle id="Oval" class="st0" cx="26.5" cy="26.7" r="26"/>
<g>
	<path class="st1" d="M38.4,36.4l-4.5-6.7c-0.1-0.2-0.4-0.2-0.5-0.1l-3.6,2.4c-1.8,0.5-3.9-3.1-4.8-4.3c-0.8-1.2-3.5-4.8-2-6.2
		l3.4-2.3c0.2-0.1,0.2-0.4,0.1-0.5L22,12c-0.1-0.2-0.4-0.2-0.5-0.1l-3.3,2.3c0,0,0,0,0,0c-0.1,0-0.1,0.1-0.2,0.2l0,0l0,0
		c-1.9,1.8-2.7,7.5,3,16.1c5.8,8.5,11.4,9.9,13.8,8.8l0,0l0,0c0.1,0,0.1-0.1,0.2-0.1c0,0,0,0,0,0l3.4-2.2
		C38.5,36.8,38.5,36.5,38.4,36.4z"/>
</g>
</svg>
