<?xml version="1.0" encoding="UTF-8"?>
<!-- Generator: Adobe Illustrator 18.1.1, SVG Export Plug-In . SVG Version: 6.00 Build 0)  -->
<svg version="1.1" id="Capa_1" xmlns="http://www.w3.org/2000/svg" xmlns:xlink="http://www.w3.org/1999/xlink" x="0px" y="0px" viewBox="0 0 140 55" enable-background="new 0 0 140 55" xml:space="preserve">
<g>
	<g>
		<path fill="#272424" d="M5.7,48.2c0-0.2,0.1-0.3,0.3-0.3h2.1c0.7,0,1.2,0.2,1.6,0.6c0.3,0.3,0.4,0.7,0.4,1.1v0    c0,0.9-0.6,1.5-1.5,1.6L10,53c0.1,0.1,0.1,0.1,0.1,0.2c0,0.2-0.2,0.3-0.3,0.3c-0.1,0-0.2-0.1-0.3-0.2l-1.6-2.1H6.3v1.9    c0,0.2-0.1,0.3-0.3,0.3c-0.2,0-0.3-0.1-0.3-0.3V48.2z M8,50.7c0.8,0,1.4-0.4,1.4-1.2v0c0-0.7-0.5-1.1-1.4-1.1H6.3v2.3H8z"/>
		<path fill="#272424" d="M15.8,53.2v-5c0-0.2,0.1-0.3,0.3-0.3h3.5c0.2,0,0.3,0.1,0.3,0.3c0,0.2-0.1,0.3-0.3,0.3h-3.1v1.9h2.8    c0.2,0,0.3,0.1,0.3,0.3c0,0.2-0.1,0.3-0.3,0.3h-2.8v2h3.2c0.2,0,0.3,0.1,0.3,0.3s-0.1,0.3-0.3,0.3h-3.5    C15.9,53.5,15.8,53.3,15.8,53.2z"/>
		<path fill="#272424" d="M27.3,53.3l-2.2-5c0,0,0-0.1,0-0.1c0-0.2,0.1-0.3,0.3-0.3c0.2,0,0.3,0.1,0.3,0.2l1.9,4.7l1.9-4.7    c0.1-0.1,0.2-0.2,0.3-0.2c0.2,0,0.3,0.1,0.3,0.3c0,0,0,0.1,0,0.1l-2.2,5c-0.1,0.2-0.2,0.3-0.4,0.3h0    C27.5,53.5,27.4,53.4,27.3,53.3z"/>
		<path fill="#272424" d="M35.8,53.2v-5c0-0.2,0.1-0.3,0.3-0.3h3.5c0.2,0,0.3,0.1,0.3,0.3c0,0.2-0.1,0.3-0.3,0.3h-3.1v1.9h2.8    c0.2,0,0.3,0.1,0.3,0.3c0,0.2-0.1,0.3-0.3,0.3h-2.8v2h3.2c0.2,0,0.3,0.1,0.3,0.3s-0.1,0.3-0.3,0.3h-3.5    C36,53.5,35.8,53.3,35.8,53.2z"/>
		<path fill="#272424" d="M45.3,52.8c-0.1,0-0.1-0.1-0.1-0.2c0-0.2,0.1-0.3,0.3-0.3c0.1,0,0.2,0,0.2,0.1c0.5,0.5,1.1,0.7,1.8,0.7    c0.7,0,1.2-0.4,1.2-1v0c0-0.5-0.3-0.8-1.4-1.1c-1.3-0.3-1.9-0.7-1.9-1.6v0c0-0.9,0.8-1.5,1.8-1.5c0.7,0,1.3,0.2,1.8,0.6    c0.1,0,0.1,0.1,0.1,0.3c0,0.2-0.1,0.3-0.3,0.3c-0.1,0-0.1,0-0.2-0.1c-0.5-0.3-0.9-0.5-1.4-0.5c-0.7,0-1.2,0.4-1.2,0.9v0    c0,0.5,0.3,0.8,1.5,1.1c1.2,0.3,1.8,0.7,1.8,1.6v0c0,1-0.8,1.6-1.9,1.6C46.6,53.6,46,53.3,45.3,52.8z"/>
		<path fill="#272424" d="M56.4,48.4h-1.6c-0.2,0-0.3-0.1-0.3-0.3s0.1-0.3,0.3-0.3h3.9c0.2,0,0.3,0.1,0.3,0.3s-0.1,0.3-0.3,0.3H57    v4.8c0,0.2-0.1,0.3-0.3,0.3s-0.3-0.1-0.3-0.3V48.4z"/>
		<path fill="#272424" d="M64.5,48.1c0-0.2,0.1-0.3,0.3-0.3c0.2,0,0.3,0.1,0.3,0.3v5.1c0,0.2-0.1,0.3-0.3,0.3    c-0.2,0-0.3-0.1-0.3-0.3V48.1z"/>
		<path fill="#272424" d="M71.1,48.1c0-0.2,0.1-0.3,0.3-0.3h0.1c0.1,0,0.2,0.1,0.3,0.2l2,3l2-3c0.1-0.1,0.2-0.2,0.3-0.2h0.1    c0.2,0,0.3,0.1,0.3,0.3v5.1c0,0.2-0.1,0.3-0.3,0.3c-0.2,0-0.3-0.2-0.3-0.3V49l-1.8,2.6c-0.1,0.1-0.2,0.2-0.3,0.2    c-0.1,0-0.2-0.1-0.3-0.2L71.8,49v4.2c0,0.2-0.1,0.3-0.3,0.3c-0.2,0-0.3-0.1-0.3-0.3V48.1z"/>
		<path fill="#272424" d="M82.5,48.1c0-0.2,0.1-0.3,0.3-0.3c0.2,0,0.3,0.1,0.3,0.3v5.1c0,0.2-0.1,0.3-0.3,0.3    c-0.2,0-0.3-0.1-0.3-0.3V48.1z"/>
		<path fill="#272424" d="M89.1,53.2v-5c0-0.2,0.1-0.3,0.3-0.3h3.5c0.2,0,0.3,0.1,0.3,0.3c0,0.2-0.1,0.3-0.3,0.3h-3.1v1.9h2.8    c0.2,0,0.3,0.1,0.3,0.3c0,0.2-0.1,0.3-0.3,0.3h-2.8v2H93c0.2,0,0.3,0.1,0.3,0.3s-0.1,0.3-0.3,0.3h-3.5    C89.3,53.5,89.1,53.3,89.1,53.2z"/>
		<path fill="#272424" d="M98.9,48.1c0-0.2,0.1-0.3,0.3-0.3h0.1c0.1,0,0.2,0.1,0.3,0.2l3.4,4.4v-4.2c0-0.2,0.1-0.3,0.3-0.3    c0.2,0,0.3,0.1,0.3,0.3v5.1c0,0.2-0.1,0.3-0.3,0.3h0c-0.1,0-0.2-0.1-0.3-0.2l-3.5-4.5v4.4c0,0.2-0.1,0.3-0.3,0.3    c-0.2,0-0.3-0.1-0.3-0.3V48.1z"/>
		<path fill="#272424" d="M111,48.4h-1.6c-0.2,0-0.3-0.1-0.3-0.3s0.1-0.3,0.3-0.3h3.9c0.2,0,0.3,0.1,0.3,0.3s-0.1,0.3-0.3,0.3h-1.6    v4.8c0,0.2-0.1,0.3-0.3,0.3c-0.2,0-0.3-0.1-0.3-0.3V48.4z"/>
		<path fill="#272424" d="M118.4,50.7L118.4,50.7c0-1.6,1.2-2.9,2.9-2.9c1.7,0,2.8,1.3,2.8,2.9v0c0,1.6-1.2,2.9-2.9,2.9    S118.4,52.2,118.4,50.7z M123.5,50.7L123.5,50.7c0-1.3-0.9-2.3-2.2-2.3s-2.2,1-2.2,2.3v0c0,1.3,0.9,2.3,2.2,2.3    S123.5,52,123.5,50.7z"/>
		<path fill="#272424" d="M129.6,52.8c-0.1,0-0.1-0.1-0.1-0.2c0-0.2,0.1-0.3,0.3-0.3c0.1,0,0.2,0,0.2,0.1c0.5,0.5,1.1,0.7,1.8,0.7    c0.7,0,1.2-0.4,1.2-1v0c0-0.5-0.3-0.8-1.5-1.1c-1.3-0.3-1.9-0.7-1.9-1.6v0c0-0.9,0.8-1.5,1.8-1.5c0.7,0,1.3,0.2,1.8,0.6    c0.1,0,0.1,0.1,0.1,0.3c0,0.2-0.1,0.3-0.3,0.3c-0.1,0-0.1,0-0.2-0.1c-0.5-0.3-0.9-0.5-1.4-0.5c-0.7,0-1.2,0.4-1.2,0.9v0    c0,0.5,0.3,0.8,1.5,1.1c1.2,0.3,1.8,0.7,1.8,1.6v0c0,1-0.8,1.6-1.9,1.6C130.9,53.6,130.2,53.3,129.6,52.8z"/>
	</g>
	<g>
		<g>
			<path fill="#272424" d="M25.3,9.9v21.9c0,3.9-3,8.6-9.7,8.6c-7.4,0-10.1-4.7-10.1-8.6V9.9c0-3.9,2.6-8.5,10.1-8.5     C22.3,1.4,25.3,6,25.3,9.9z M18.6,9.9c0-1.1-1.1-3.2-3-3.2c-2.4,0-3.3,2.1-3.3,3.1v21.9c0,1.2,1,3.3,3.3,3.3c1.9,0,3-2.1,3-3.3     V9.9z"/>
			<path fill="#272424" d="M45,12.6V11c0-2.7-1.4-4.1-3-4.1c-1.7,0-3,1.2-3,3c0,1.6,0.3,2.9,1.9,4.7l6.7,7.8     c2.7,3.1,4.4,5.2,4.4,9.7c0,5.5-4.6,8.5-9.9,8.5c-5.4,0-9.8-3.1-9.8-8.5v-4H39v3.5c0,2.3,1.3,3.5,3,3.5c1.7,0,3-1.2,3-3.5     c0-2-0.8-3.5-2.2-5.2l-5.6-5.8c-3.5-4.2-5.1-5.4-5.1-10.6c0-5.2,4.1-8.5,9.8-8.5c5.7,0,9.7,3.4,9.7,8.5v2.7H45z"/>
			<path fill="#272424" d="M72.1,12.9v-3c0-1.1-1.1-3.1-3.1-3.1c-2.4,0-3.4,2-3.4,3.1v21.9c0,1.1,1,3.1,3.4,3.1c1.9,0,3.1-2,3.1-3.1     v-3h6.8v3c0,3.9-3.1,8.5-9.8,8.5c-7.4,0-10.2-4.7-10.2-8.5v-22c0-3.9,2.8-8.5,10.2-8.5c6.8,0,9.8,4.7,9.8,8.5v3H72.1z"/>
			<path fill="#272424" d="M97.6,31h-6.5l-1.3,8.8h-6.3l7.7-38h6.7l7.7,38H99L97.6,31z M96.5,25.6l-2-13.6h-0.2l-2.1,13.6H96.5z"/>
			<path fill="#272424" d="M127.5,39.9l-6.4-15.3c-0.9,0-1.9,0-2.2,0v15.3h-6.7v-38h11.2c6.5,0,9.5,4.8,9.5,10.8     c0,5.6-2.4,9.3-5.6,10.9l7.1,16.2H127.5z M119,18.8h2.2c4.4,0,5.5-0.5,5.5-6.1c0-3-0.7-5.4-3.3-5.4H119V18.8z"/>
		</g>
	</g>
</g>
</svg>